<svg width="12" height="12" viewBox="0 0 12 12" fill="none" xmlns="http://www.w3.org/2000/svg">
<path d="M2.39749 8.79473C2.42499 8.84465 2.44218 8.88124 2.44968 8.89736C2.62374 9.23287 2.83749 9.57085 3.12968 9.76248L3.15812 9.78078C3.48874 9.98326 4.08062 10.1594 4.68968 10.2571C4.7303 9.79008 5.01155 9.36775 5.29093 9.05643C4.92602 9.16547 4.54702 9.22105 4.16593 9.2214C3.55037 9.22219 2.94367 9.07584 2.39718 8.79473H2.39749ZM7.05687 7.02015C6.70999 6.90946 6.18968 6.39256 5.39936 6.57984C4.74812 6.73426 4.55218 7.18512 4.44843 7.34946C4.20562 7.11163 3.94749 6.95039 3.73343 6.91442C3.57093 6.88682 3.46405 6.93612 3.40312 6.98171C3.29218 7.06543 3.28937 7.06853 4.02718 8.5907L4.08874 8.71752C4.08968 8.71969 4.09124 8.72155 4.0928 8.72372L4.15905 8.85954C4.15905 8.85954 4.20155 9.00186 4.44655 8.93457C4.44655 8.93457 6.14468 8.77333 6.7903 7.60744C6.84562 7.50791 7.05968 7.0214 7.05687 7.02047V7.02015ZM0.342178 4.98543C0.347178 4.88775 0.340928 4.67039 0.19999 4.55845C0.0865544 4.972 0.0213358 5.39711 0.00561523 5.82543C0.119365 5.83566 0.244053 5.87814 0.369365 5.97519C0.338115 5.77364 0.270928 5.43318 0.342178 4.98543ZM6.73655 10.0921C6.45937 9.79442 6.41218 9.23721 6.5978 8.42946C6.61241 8.36622 6.62783 8.30316 6.64405 8.24031C6.38093 8.52062 5.94155 8.79473 5.67124 9.05426C5.37249 9.34109 4.99562 9.80093 4.95968 10.2946C5.27843 10.3327 5.59155 10.3507 5.86468 10.3309C6.38905 10.2924 6.64187 10.1343 6.73655 10.0921ZM9.93655 3.07597C10.0683 3.23806 10.1786 3.41626 10.2647 3.6062C10.4537 3.95969 11.0712 4.96682 11.8869 4.77426C11.8425 4.49488 11.7797 4.20651 11.6947 3.91442C11.6884 3.89736 11.6828 3.88031 11.6762 3.86295L11.6794 3.86202C11.5955 3.5832 11.4917 3.31067 11.3687 3.04651C10.9003 3.24093 10.35 3.17829 9.93655 3.07628V3.07597ZM9.08593 0.995349C9.10671 1.01409 9.12116 1.03874 9.12731 1.06593C9.13346 1.09312 9.13101 1.12153 9.1203 1.14729C8.91811 1.63163 8.4578 2.03008 8.06437 2.29984C8.42499 2.29457 8.90218 2.36496 9.46124 2.63442C9.63937 2.70946 10.5706 3.07411 11.2484 2.80372C11.2466 2.8 11.2437 2.79566 11.2422 2.79132C11.2284 2.76527 11.2141 2.73953 11.1997 2.7138C10.9716 2.30481 10.3647 1.3724 9.25062 0.670388C8.65805 0.313644 7.99619 0.0851899 7.30843 0C7.37434 0.335769 7.33778 0.683417 7.20343 0.99845C8.24405 0.545116 8.79812 0.734884 9.08593 0.995349ZM7.00593 9.96992C7.51624 9.73457 7.9278 9.5231 8.25937 9.33364C8.23218 9.32248 8.20655 9.31101 8.18343 9.29829C7.67749 9.02388 7.39468 8.08 7.26749 7.2555C7.2495 7.30228 7.23033 7.3486 7.20999 7.39442C7.12186 7.61829 6.96624 8.04341 6.86343 8.49271C6.6428 9.45395 6.80874 9.82853 7.00593 9.96992ZM10.2756 5.21736C9.6403 5.56775 9.01437 5.74357 8.40468 5.74357C8.06168 5.74363 7.72103 5.68737 7.39655 5.57705C7.50937 6.02605 7.42718 6.47876 7.49343 6.88806C7.52468 6.8986 7.55593 6.90946 7.58749 6.91907C8.52468 7.22388 9.25249 7.2769 9.69218 7.07225C9.81843 7.01364 9.9203 6.93426 10.0006 6.83349C10.3087 6.44899 10.29 5.64651 10.2756 5.21736Z" fill="#FF6B00"/>
<path d="M8.8025 8.99404L8.80313 8.99497C9.45625 8.61265 9.84875 7.72955 9.98656 7.21513C9.92985 7.25438 9.86983 7.28872 9.80719 7.31776C9.58219 7.42257 9.31656 7.46536 9.03219 7.46536C8.54844 7.46536 8.01156 7.34133 7.5325 7.18784C7.655 7.98226 7.92188 8.84768 8.31375 9.0604C8.46063 9.13978 8.62 9.11807 8.8025 8.99404ZM7.32531 5.26257C7.4368 5.30727 7.55085 5.34537 7.66687 5.37668C8.49187 5.59497 9.36438 5.43931 10.2622 4.91249C10.2531 4.42071 10.1562 4.03032 10.0153 3.72117C9.97719 3.64892 9.95656 3.60334 9.95406 3.59745H9.95438C9.79977 3.30237 9.5752 3.049 9.3 2.85916C8.69063 2.57513 8.19187 2.55032 7.86562 2.58629C8.79875 2.95032 8.95781 3.47466 8.965 3.50009L8.97125 3.52179C8.98562 3.57141 8.9625 3.6235 8.91594 3.64675L8.89563 3.65699C7.99875 4.10753 7.14969 3.85544 6.68625 3.63993C6.82281 3.95993 7.00375 4.38784 7.07438 4.55342L7.07625 4.55249C7.10531 4.61854 7.13344 4.68737 7.16125 4.75838L7.16313 4.76241C7.22623 4.92614 7.28048 5.0931 7.32562 5.26257H7.32531ZM10.3666 9.1773C10.1266 8.83373 10.0478 8.33389 10.0366 7.87373C9.96128 8.05067 9.87679 8.22362 9.78344 8.39187L9.78406 8.39249C9.77125 8.4204 9.75625 8.44831 9.73938 8.47683C9.59969 8.74846 9.15 9.7004 9.35875 10.3119C9.41407 10.4839 9.5359 10.6271 9.6975 10.71C9.86688 10.586 10.3591 10.1978 10.8387 9.54691C10.6497 9.47869 10.4909 9.35559 10.3669 9.1773H10.3666ZM1.21094 7.83993C0.900937 7.43745 0.677188 7.09017 0.564375 6.7252C0.5025 6.52396 0.29375 6.14629 0 6.09978C0.0040625 6.69265 0.0965625 7.26567 0.264375 7.80582C0.632187 7.74381 0.94625 7.76737 1.21094 7.83993Z" fill="#FF6B00"/>
<path d="M9.10009 10.3982C8.95759 9.97956 9.06321 9.45615 9.20634 9.03289C9.13009 9.09305 9.04571 9.15382 8.95571 9.21584L8.95665 9.21708C8.94165 9.227 8.92728 9.23599 8.91259 9.24498C8.80744 9.31603 8.70053 9.38448 8.59196 9.45026L8.5929 9.45181C8.52852 9.49088 7.05353 10.4168 7.75759 11.7386C8.37248 11.55 8.95265 11.2642 9.47571 10.8921C9.29799 10.7742 9.16562 10.6001 9.10009 10.3982ZM11.9235 5.04312C11.8413 5.0608 11.7592 5.07041 11.6773 5.07041C11.272 5.07041 10.871 4.85491 10.5013 4.43475L10.4982 4.43103C10.5232 4.60684 10.5357 4.79134 10.5357 4.98359C10.5401 5.04033 10.5435 5.09739 10.546 5.15382C10.5751 5.4763 10.6879 6.19227 11.1257 6.57646C11.3398 6.76405 11.6101 6.84933 11.931 6.83227L11.9391 6.78979C11.9691 6.54917 11.9845 6.30452 11.9845 6.05646C11.9851 5.75041 11.9688 5.40746 11.9235 5.04312Z" fill="#FF6B00"/>
<path d="M10.9446 6.77835C10.7455 6.60347 10.6043 6.37773 10.5049 6.14548C10.4768 6.37153 10.4365 6.58858 10.3883 6.79571C10.353 7.00409 10.1418 8.38114 10.5908 9.02331C10.698 9.17742 10.8333 9.27199 11.0015 9.31354C11.2095 9.00213 11.3861 8.67112 11.5287 8.32533L11.5305 8.32626C11.695 7.93315 11.8161 7.52353 11.8918 7.10455C11.5205 7.11385 11.2024 7.00471 10.9449 6.77866L10.9446 6.77835ZM2.48521 9.49029C2.34834 9.29556 2.23459 9.08223 2.13428 8.8782C1.96303 8.58176 1.4449 7.90362 0.353027 8.06579C0.574902 8.67664 0.894277 9.24099 1.29303 9.74114C1.61928 9.40005 2.07834 9.38641 2.48521 9.48998V9.49029ZM5.94115 10.5994C5.54272 10.6323 5.07553 10.5985 4.62303 10.5228C4.2924 10.4881 3.37115 10.454 2.72678 11.0391C3.4823 11.5294 4.34029 11.8427 5.23584 11.9554C5.2249 11.5573 5.41084 11.1461 5.78115 10.757C5.83243 10.7024 5.8858 10.6499 5.94115 10.5994ZM2.99771 10.001C2.84772 9.91168 1.95772 9.41742 1.47678 9.94145C1.61021 10.1036 1.95396 10.4894 2.4974 10.8816C2.85178 10.5387 3.27803 10.37 3.6674 10.2925C3.26615 10.1762 3.0049 10.0056 2.99771 10.001ZM7.68209 9.9461C7.34615 10.1135 6.44115 10.4174 5.92303 11.0038C5.69115 11.2667 5.48772 11.6028 5.50928 11.9746C5.69209 11.9945 6.11053 12.0242 6.65678 11.9653L6.73709 11.956L6.7699 11.952C7.01459 11.9207 7.2549 11.8745 7.48959 11.8143C7.10803 11.0515 7.34678 10.4035 7.68209 9.9461ZM2.36928 6.89308C2.38615 6.90641 2.41522 6.92533 2.50928 6.92533C2.62272 6.92533 2.8299 6.89742 3.22428 6.7982C3.71197 6.67472 4.18858 6.51159 4.64928 6.31044C4.71272 6.2813 4.87428 6.20316 5.06178 6.11106C5.12758 6.18302 5.17911 6.26665 5.21365 6.35757C6.27928 6.12626 6.68459 6.58548 7.13084 6.75695C7.22209 6.32502 7.20709 5.75944 7.09615 5.46021C6.06053 5.0013 5.40084 4.11075 5.1574 3.73401C4.91365 3.92161 4.55084 4.17215 4.33022 4.61463C3.88178 5.51447 3.40834 6.32378 2.56303 6.58145C2.41834 6.62548 2.32428 6.66114 2.31209 6.76502C2.30981 6.78943 2.31387 6.81402 2.32388 6.83644C2.33389 6.85886 2.34952 6.87836 2.36928 6.89308Z" fill="#FF6B00"/>
<path d="M3.08594 4.98145C3.33282 4.80471 3.77845 4.48936 3.9347 4.36223C4.21782 4.13091 5.0022 3.51634 5.20001 3.36099C5.22345 3.34238 5.25813 3.35076 5.27188 3.37742C5.88314 4.58362 6.99845 5.10983 6.99845 5.10983C6.94829 4.95749 6.89072 4.80765 6.82595 4.66083L6.82751 4.66052L6.59376 4.11355L6.44564 3.76812C6.39054 3.6388 6.33492 3.5097 6.27876 3.38083L6.10095 2.97711C6.09501 2.96347 6.11032 2.95138 6.12282 2.95975L6.48345 3.21711C6.49407 3.22486 7.53439 3.94579 8.65033 3.472C8.5372 3.29339 8.20345 2.91882 7.31126 2.69401L7.0072 2.61742C6.98532 2.61184 6.98251 2.58207 7.00314 2.57277L7.28689 2.44006C7.29876 2.43448 8.43689 1.89618 8.82439 1.13525C8.31501 0.788895 7.42595 1.16719 6.92532 1.43355L6.35439 1.73742C6.34064 1.74486 6.3272 1.72812 6.3372 1.71634L6.75689 1.22672C6.7747 1.20564 7.18282 0.713547 7.03501 0.0279652C6.75751 -0.0145154 5.81345 -0.0799418 4.9797 0.785484L4.81345 0.958198C4.81011 0.961754 4.80581 0.964275 4.80107 0.965456C4.79632 0.966637 4.79133 0.966428 4.7867 0.964853C4.78207 0.963278 4.778 0.960405 4.77498 0.956582C4.77197 0.95276 4.77013 0.948151 4.7697 0.943314L4.70001 0.258663C4.28345 0.435407 3.18251 1.04719 3.01969 2.61401C2.96219 3.17153 2.87126 3.65029 2.74688 4.05742L2.74594 4.05711L2.72969 4.11448C2.68859 4.24375 2.64135 4.37103 2.58813 4.49587C2.54855 4.58155 2.50237 4.66406 2.45001 4.74269C2.35844 4.87851 2.39938 4.96905 2.43719 5.00657C2.51126 5.08161 2.87626 5.13122 3.08594 4.98145ZM4.32126 2.41711C4.50626 2.29928 4.70251 2.49401 4.58407 2.67758C4.57626 2.68998 4.56532 2.70083 4.55313 2.70859C4.36813 2.82641 4.17157 2.63107 4.29032 2.4475C4.29813 2.43541 4.30907 2.42517 4.32126 2.4168V2.41711ZM3.34626 2.41711C3.53126 2.29928 3.72751 2.49401 3.60876 2.67758C3.60126 2.68998 3.59001 2.70083 3.57782 2.70859C3.39282 2.82641 3.19657 2.63107 3.31532 2.4475C3.32313 2.43541 3.33376 2.42517 3.34594 2.4168L3.34626 2.41711Z" fill="#FF6B00"/>
</svg>
