<svg xmlns="http://www.w3.org/2000/svg" viewBox="0 0 12 12"><defs><style>.cls-1{fill:#ff6b00;}.cls-2{fill:#fff;}</style></defs><title>pangolin-orange-orange-logo</title><g id="Capa_2" data-name="Capa 2"><circle class="cls-1" cx="6" cy="6" r="6"/></g><g id="Capa_1" data-name="Capa 1"><path class="cls-2" d="M3.17,8.19l0,.08A1.83,1.83,0,0,0,3.74,9l0,0A3.47,3.47,0,0,0,5,9.34a1.69,1.69,0,0,1,.47-.94,2.89,2.89,0,0,1-.88.13,3.07,3.07,0,0,1-1.39-.34ZM6.83,6.8a1.89,1.89,0,0,0-1.3-.34,1.1,1.1,0,0,0-.75.6,1.14,1.14,0,0,0-.56-.34.32.32,0,0,0-.26,0c-.09.07-.09.07.49,1.26l0,.1h0l0,.11s0,.11.23.05a2.56,2.56,0,0,0,1.84-1l.21-.46ZM1.56,5.2a.4.4,0,0,0-.12-.33,4.74,4.74,0,0,0-.15,1A.55.55,0,0,1,1.58,6,2.09,2.09,0,0,1,1.56,5.2Zm5,4c-.22-.23-.26-.67-.11-1.3l0-.15c-.2.22-.55.43-.76.64a1.67,1.67,0,0,0-.56,1,3.49,3.49,0,0,0,.71,0A1.59,1.59,0,0,0,6.58,9.21ZM9.09,3.7a2.26,2.26,0,0,1,.26.42c.15.28.63,1.07,1.27.92a4.38,4.38,0,0,0-.15-.68l0,0h0a5,5,0,0,0-.25-.64,1.87,1.87,0,0,1-1.12,0ZM8.42,2.07a.07.07,0,0,1,0,.06.06.06,0,0,1,0,.06,2.26,2.26,0,0,1-.83.9,2.56,2.56,0,0,1,1.1.27,2.14,2.14,0,0,0,1.4.13h0l0-.06a4.55,4.55,0,0,0-1.53-1.6A3.89,3.89,0,0,0,7,1.29a1.3,1.3,0,0,1-.09.78C7.76,1.72,8.2,1.87,8.42,2.07Zm-1.63,7c.4-.19.72-.35,1-.5l-.06,0A2.4,2.4,0,0,1,7,7l0,.1A6.19,6.19,0,0,0,6.68,8C6.5,8.71,6.63,9,6.79,9.12ZM9.36,5.39a3.12,3.12,0,0,1-1.47.41,2.73,2.73,0,0,1-.8-.13,9.47,9.47,0,0,1,.08,1l.07,0a2.48,2.48,0,0,0,1.66.12.57.57,0,0,0,.24-.19A2.22,2.22,0,0,0,9.36,5.39Z"/><path class="cls-2" d="M8.2,8.35h0A2.46,2.46,0,0,0,9.13,7L9,7a1.36,1.36,0,0,1-.61.12A4.09,4.09,0,0,1,7.2,6.93c.1.63.31,1.31.61,1.47A.34.34,0,0,0,8.2,8.35ZM7,5.42a1.43,1.43,0,0,0,.27.09,2.62,2.62,0,0,0,2-.36,2.23,2.23,0,0,0-.19-.94l-.05-.1h0a1.58,1.58,0,0,0-.51-.58,2.12,2.12,0,0,0-1.13-.21c.74.29.86.7.87.72h0a.1.1,0,0,1,0,.1h0a2,2,0,0,1-1.73,0c.1.25.25.58.3.71h0A1.22,1.22,0,0,1,6.91,5h0c0,.13.09.26.13.39ZM9.43,8.49a1.91,1.91,0,0,1-.26-1c-.06.14-.13.28-.2.41H9l0,.06a2.28,2.28,0,0,0-.29,1.45.53.53,0,0,0,.26.31,4.46,4.46,0,0,0,.9-.92.7.7,0,0,1-.37-.29Zm-7.19-1a2.66,2.66,0,0,1-.51-.87c-.05-.16-.21-.46-.44-.49A4.32,4.32,0,0,0,1.5,7.42,1.8,1.8,0,0,1,2.24,7.44Z"/><path class="cls-2" d="M8.43,9.45a1.72,1.72,0,0,1,.09-1.07l-.2.14h0l0,0L8,8.71H8s-1.2.76-.65,1.8a4.87,4.87,0,0,0,1.35-.67A.73.73,0,0,1,8.43,9.45Zm2.22-4.2-.19,0a1.27,1.27,0,0,1-.93-.5h0a3,3,0,0,1,0,.43s0,.09,0,.14A1.76,1.76,0,0,0,10,6.45a.82.82,0,0,0,.63.2v0a5.46,5.46,0,0,0,0-.58A7.61,7.61,0,0,0,10.65,5.25Z"/><path class="cls-2" d="M9.88,6.61a1.21,1.21,0,0,1-.34-.5c0,.18-.06.35-.1.51A3,3,0,0,0,9.6,8.37a.55.55,0,0,0,.33.23,4.37,4.37,0,0,0,.41-.77h0a4.59,4.59,0,0,0,.28-1,1.06,1.06,0,0,1-.74-.26ZM3.24,8.74A3.33,3.33,0,0,1,3,8.26a1.31,1.31,0,0,0-1.4-.64A5,5,0,0,0,2.3,8.94a.93.93,0,0,1,.94-.2ZM6,9.61a4.07,4.07,0,0,1-1-.06A2,2,0,0,0,3.43,10a4.79,4.79,0,0,0,2,.72,1.35,1.35,0,0,1,.43-.95ZM3.64,9.14c-.12-.07-.82-.46-1.19-.05a4.05,4.05,0,0,0,.8.74,1.79,1.79,0,0,1,.92-.46A2.26,2.26,0,0,1,3.64,9.14Zm3.68,0a4.07,4.07,0,0,0-1.38.83,1.15,1.15,0,0,0-.33.76,3.84,3.84,0,0,0,.9,0H6.6a3.82,3.82,0,0,0,.57-.11A1.34,1.34,0,0,1,7.32,9.1ZM3.15,6.7s0,0,.11,0a3.25,3.25,0,0,0,.56-.1,7.43,7.43,0,0,0,1.12-.39l.32-.15a.62.62,0,0,1,.12.19,2,2,0,0,1,1.51.31,2.11,2.11,0,0,0,0-1A3.71,3.71,0,0,1,5.34,4.22a2,2,0,0,0-.65.69A2.66,2.66,0,0,1,3.3,6.46c-.11,0-.19.06-.2.14a.13.13,0,0,0,0,.06S3.13,6.69,3.15,6.7Z"/><path class="cls-2" d="M3.71,5.2l.67-.49,1-.78a0,0,0,0,1,.06,0A3.22,3.22,0,0,0,6.78,5.3,3.62,3.62,0,0,0,6.65,5h0l-.19-.43-.11-.27c0-.1-.09-.21-.13-.31l-.14-.31s0,0,0,0l.29.21a1.93,1.93,0,0,0,1.7.2A1.62,1.62,0,0,0,7,3.4l-.24-.06s0,0,0,0L7,3.21a3.08,3.08,0,0,0,1.21-1c-.4-.27-1.1,0-1.5.23l-.44.24s0,0,0,0l.33-.39a1.1,1.1,0,0,0,.22-.94,1.87,1.87,0,0,0-1.61.6L5.07,2H5l0-.54A2.19,2.19,0,0,0,3.66,3.34a6,6,0,0,1-.22,1.13h0v0c0,.1-.07.2-.11.3A1.18,1.18,0,0,1,3.21,5c-.07.11,0,.18,0,.21A.52.52,0,0,0,3.71,5.2Zm1-2a.15.15,0,0,1,.21.2l0,0a.15.15,0,0,1-.2-.21,0,0,0,0,1,0,0Zm-.77,0a.15.15,0,0,1,.21.2l0,0a.15.15,0,0,1-.21-.21l0,0Z"/></g></svg>