<svg width="306" height="148" viewBox="0 0 306 148" fill="none" xmlns="http://www.w3.org/2000/svg">
<rect x="42" y="37" width="222" height="75" rx="16" fill="white" stroke="black" stroke-width="2"/>
<path d="M73.1866 89.0001H67.0852C65.7724 89.0001 65.1159 89.0001 64.7228 88.7453C64.2979 88.47 64.0299 88.0081 64.0015 87.5022C63.9752 87.0341 64.3004 86.4633 64.9508 85.3216L77.8051 62.7585C78.465 61.6003 78.7949 61.0212 79.2147 60.8056C79.6682 60.5727 80.206 60.5723 80.6599 60.8045C81.0799 61.0195 81.4107 61.5981 82.0722 62.7554L85.1512 68.1417C85.6323 68.9832 85.8728 69.404 85.9786 69.8479C86.0937 70.3312 86.094 70.8347 85.9792 71.318C85.8738 71.762 85.6337 72.183 85.1533 73.025L77.454 86.5203C76.9666 87.3745 76.723 87.8016 76.3891 88.121C76.0257 88.4686 75.5849 88.7247 75.1032 88.8682C74.6606 89.0001 74.1693 89.0001 73.1866 89.0001Z" fill="black"/>
<path d="M93.6917 88.9999H86.6318C85.3125 88.9999 84.6528 88.9999 84.2602 88.7405C83.8358 88.4602 83.5697 87.9902 83.5446 87.4769C83.5214 87.0019 83.8533 86.4233 84.5173 85.266L88.0414 79.1234C88.697 77.9808 89.0248 77.4094 89.4398 77.1954C89.8884 76.9642 90.4187 76.9638 90.8676 77.1944C91.2829 77.4078 91.6115 77.9786 92.2687 79.1204L95.8044 85.263C96.4709 86.4209 96.8042 86.9999 96.7814 87.4753C96.7568 87.989 96.4908 88.4594 96.0663 88.7402C95.6735 88.9999 95.0129 88.9999 93.6917 88.9999Z" fill="black"/>
<path d="M122.728 89.0001H116.801C115.526 89.0001 114.888 89.0001 114.506 88.7453C114.094 88.47 113.833 88.0081 113.806 87.5022C113.78 87.0341 114.096 86.4633 114.728 85.3216L127.215 62.7585C127.856 61.6003 128.176 61.0212 128.584 60.8056C129.025 60.5727 129.547 60.5723 129.988 60.8045C130.396 61.0195 130.717 61.5981 131.36 62.7554L134.351 68.1417C134.818 68.9832 135.052 69.404 135.155 69.8479C135.267 70.3312 135.267 70.8347 135.155 71.318C135.053 71.762 134.82 72.183 134.353 73.025L126.874 86.5203C126.4 87.3745 126.164 87.8016 125.839 88.121C125.486 88.4686 125.058 88.7247 124.59 88.8682C124.16 89.0001 123.683 89.0001 122.728 89.0001Z" fill="black"/>
<path d="M143.496 88.9999H136.436C135.117 88.9999 134.457 88.9999 134.064 88.7405C133.64 88.4602 133.374 87.9902 133.349 87.4769C133.325 87.0019 133.657 86.4233 134.321 85.266L137.846 79.1234C138.501 77.9808 138.829 77.4094 139.244 77.1954C139.692 76.9642 140.223 76.9638 140.672 77.1944C141.087 77.4078 141.416 77.9786 142.073 79.1204L145.608 85.263C146.275 86.4209 146.608 86.9999 146.586 87.4753C146.561 87.989 146.295 88.4594 145.87 88.7402C145.478 88.9999 144.817 88.9999 143.496 88.9999Z" fill="black"/>
<path d="M98.2773 60L92.2106 60C90.9374 60 90.3008 60 89.9193 60.2489C89.507 60.5178 89.2468 60.9691 89.2189 61.4634C89.1931 61.9208 89.5079 62.4787 90.1377 63.5944L102.571 85.6233C103.225 86.7815 103.551 87.3605 103.964 87.5715C104.41 87.7994 104.938 87.7945 105.38 87.5584C105.789 87.3398 106.106 86.7548 106.738 85.5848L109.821 79.8816C110.264 79.0616 110.486 78.6516 110.58 78.2216C110.682 77.7535 110.676 77.2679 110.561 76.8028C110.455 76.3755 110.223 75.9717 109.757 75.1641L102.402 62.3943C101.927 61.5692 101.689 61.1566 101.366 60.8483C101.014 60.5127 100.588 60.2656 100.124 60.1272C99.6968 60 99.2236 60 98.2773 60Z" fill="black"/>
<path d="M118.912 60.0004L111.846 60.0004C110.528 60.0004 109.87 60.0004 109.477 60.2454C109.053 60.5103 108.787 60.9542 108.762 61.4393C108.738 61.8882 109.069 62.4351 109.731 63.5288L113.258 69.3565L113.258 69.3565C113.914 70.4395 114.242 70.9809 114.657 71.1836C115.105 71.4026 115.636 71.403 116.085 71.1846C116.501 70.9825 116.829 70.4414 117.486 69.3594L121.025 63.5317C121.689 62.4373 122.022 61.8901 121.999 61.4409C121.974 60.9554 121.708 60.511 121.283 60.2458C120.891 60.0004 120.231 60.0004 118.912 60.0004Z" fill="black"/>
<path d="M164.202 60.0333H168.609C169.48 60.0333 170.182 60.2798 170.716 60.7727C171.249 61.2611 171.516 61.9494 171.516 62.8376C171.516 63.6014 171.278 64.2675 170.802 64.8359C170.327 65.3998 169.596 65.6818 168.609 65.6818H165.529V69.8183H164.202V60.0333ZM170.176 62.8442C170.176 62.1249 169.909 61.6364 169.376 61.3788C169.082 61.2412 168.68 61.1723 168.169 61.1723H165.529V64.5628H168.169C168.764 64.5628 169.247 64.4362 169.616 64.1831C169.989 63.93 170.176 63.4837 170.176 62.8442Z" fill="black"/>
<path d="M175.583 69.0456C176.379 69.0456 176.923 68.7459 177.217 68.1464C177.514 67.5425 177.663 66.8719 177.663 66.1348C177.663 65.4687 177.557 64.9269 177.343 64.5095C177.006 63.8523 176.423 63.5237 175.596 63.5237C174.863 63.5237 174.33 63.8034 173.996 64.3629C173.663 64.9225 173.496 65.5974 173.496 66.3879C173.496 67.1472 173.663 67.78 173.996 68.2863C174.33 68.7925 174.859 69.0456 175.583 69.0456ZM175.63 62.4779C176.55 62.4779 177.328 62.7843 177.963 63.3971C178.599 64.0099 178.917 64.9114 178.917 66.1015C178.917 67.2516 178.637 68.2019 178.077 68.9524C177.517 69.7028 176.648 70.0781 175.47 70.0781C174.487 70.0781 173.707 69.7472 173.13 69.0856C172.552 68.4195 172.263 67.5269 172.263 66.4079C172.263 65.2089 172.567 64.2542 173.176 63.5436C173.785 62.8331 174.603 62.4779 175.63 62.4779Z" fill="black"/>
<path d="M180.631 62.6844L182.004 68.3063L183.398 62.6844H184.744L186.144 68.2729L187.605 62.6844H188.805L186.731 69.8183H185.484L184.031 64.2963L182.624 69.8183H181.377L179.317 62.6844H180.631Z" fill="black"/>
<path d="M192.645 62.5245C193.152 62.5245 193.643 62.6444 194.119 62.8842C194.594 63.1196 194.957 63.426 195.206 63.8034C195.446 64.1631 195.606 64.5828 195.686 65.0624C195.757 65.391 195.792 65.915 195.792 66.6343H190.558C190.581 67.3582 190.752 67.9399 191.072 68.3795C191.392 68.8147 191.888 69.0323 192.559 69.0323C193.185 69.0323 193.685 68.8258 194.059 68.4128C194.272 68.173 194.423 67.8955 194.512 67.5802H195.692C195.661 67.8422 195.557 68.1353 195.379 68.4595C195.206 68.7792 195.01 69.0412 194.792 69.2455C194.428 69.6007 193.977 69.8405 193.439 69.9648C193.15 70.0359 192.823 70.0714 192.459 70.0714C191.57 70.0714 190.816 69.7495 190.198 69.1056C189.581 68.4572 189.272 67.5513 189.272 66.3879C189.272 65.2422 189.583 64.3119 190.205 63.5969C190.827 62.882 191.641 62.5245 192.645 62.5245ZM194.559 65.6818C194.51 65.1623 194.397 64.7471 194.219 64.4362C193.89 63.8589 193.341 63.5703 192.572 63.5703C192.021 63.5703 191.559 63.7701 191.185 64.1698C190.812 64.565 190.614 65.069 190.592 65.6818H194.559Z" fill="black"/>
<path d="M197.033 62.6844H198.173V63.9167C198.266 63.6769 198.495 63.386 198.86 63.0441C199.224 62.6977 199.644 62.5245 200.12 62.5245C200.142 62.5245 200.18 62.5267 200.233 62.5312C200.286 62.5356 200.377 62.5445 200.506 62.5578V63.8234C200.435 63.8101 200.369 63.8012 200.306 63.7968C200.249 63.7923 200.184 63.7901 200.113 63.7901C199.509 63.7901 199.044 63.9855 198.72 64.3763C198.395 64.7626 198.233 65.2089 198.233 65.7151V69.8183H197.033V62.6844Z" fill="black"/>
<path d="M204.247 62.5245C204.754 62.5245 205.245 62.6444 205.721 62.8842C206.196 63.1196 206.558 63.426 206.807 63.8034C207.047 64.1631 207.207 64.5828 207.287 65.0624C207.358 65.391 207.394 65.915 207.394 66.6343H202.16C202.182 67.3582 202.354 67.9399 202.674 68.3795C202.994 68.8147 203.489 69.0323 204.16 69.0323C204.787 69.0323 205.287 68.8258 205.661 68.4128C205.874 68.173 206.025 67.8955 206.114 67.5802H207.294C207.263 67.8422 207.158 68.1353 206.981 68.4595C206.807 68.7792 206.612 69.0412 206.394 69.2455C206.029 69.6007 205.578 69.8405 205.04 69.9648C204.752 70.0359 204.425 70.0714 204.06 70.0714C203.171 70.0714 202.418 69.7495 201.8 69.1056C201.182 68.4572 200.873 67.5513 200.873 66.3879C200.873 65.2422 201.185 64.3119 201.807 63.5969C202.429 62.882 203.242 62.5245 204.247 62.5245ZM206.161 65.6818C206.112 65.1623 205.998 64.7471 205.821 64.4362C205.492 63.8589 204.943 63.5703 204.174 63.5703C203.623 63.5703 203.16 63.7701 202.787 64.1698C202.414 64.565 202.216 65.069 202.194 65.6818H206.161Z" fill="black"/>
<path d="M209.361 66.3346C209.361 67.0984 209.523 67.7378 209.848 68.253C210.172 68.7681 210.692 69.0256 211.408 69.0256C211.964 69.0256 212.419 68.7881 212.775 68.3129C213.135 67.8333 213.315 67.1472 213.315 66.2547C213.315 65.3532 213.13 64.6871 212.761 64.2564C212.393 63.8212 211.937 63.6036 211.395 63.6036C210.79 63.6036 210.299 63.8345 209.921 64.2963C209.548 64.7582 209.361 65.4376 209.361 66.3346ZM211.168 62.5578C211.715 62.5578 212.173 62.6733 212.541 62.9042C212.755 63.0374 212.997 63.2705 213.268 63.6036V60H214.422V69.8183H213.342V68.8258C213.061 69.2654 212.73 69.5829 212.348 69.7783C211.966 69.9737 211.528 70.0714 211.035 70.0714C210.239 70.0714 209.55 69.7384 208.968 69.0723C208.385 68.4017 208.094 67.5114 208.094 66.4012C208.094 65.3621 208.359 64.4629 208.888 63.7035C209.421 62.9397 210.181 62.5578 211.168 62.5578Z" fill="black"/>
<path d="M219.363 60H220.529V63.5503C220.792 63.2084 221.105 62.9486 221.47 62.771C221.834 62.5889 222.23 62.4979 222.656 62.4979C223.545 62.4979 224.265 62.8043 224.817 63.4171C225.372 64.0255 225.65 64.9247 225.65 66.1148C225.65 67.2427 225.377 68.1797 224.83 68.9257C224.283 69.6718 223.525 70.0448 222.556 70.0448C222.014 70.0448 221.556 69.9138 221.183 69.6518C220.961 69.4963 220.723 69.2477 220.469 68.9057V69.8183H219.363V60ZM222.483 68.9857C223.132 68.9857 223.616 68.7281 223.936 68.213C224.261 67.6979 224.423 67.0185 224.423 66.1747C224.423 65.4243 224.261 64.8026 223.936 64.3097C223.616 63.8167 223.143 63.5703 222.516 63.5703C221.97 63.5703 221.49 63.7723 221.076 64.1764C220.667 64.5805 220.463 65.2466 220.463 66.1747C220.463 66.8453 220.547 67.3893 220.716 67.8067C221.032 68.5927 221.621 68.9857 222.483 68.9857Z" fill="black"/>
<path d="M231.244 62.6844H232.571C232.402 63.1418 232.026 64.1853 231.444 65.815C231.009 67.0407 230.644 68.0398 230.351 68.8125C229.657 70.6332 229.168 71.7433 228.884 72.143C228.599 72.5426 228.11 72.7425 227.417 72.7425C227.248 72.7425 227.117 72.7358 227.024 72.7225C226.935 72.7092 226.824 72.6847 226.69 72.6492V71.5568C226.899 71.6145 227.05 71.6501 227.144 71.6634C227.237 71.6767 227.319 71.6834 227.39 71.6834C227.613 71.6834 227.775 71.6456 227.877 71.5701C227.984 71.4991 228.073 71.4103 228.144 71.3037C228.166 71.2682 228.246 71.0861 228.384 70.7575C228.522 70.4289 228.622 70.1846 228.684 70.0248L226.044 62.6844H227.404L229.317 68.4928L231.244 62.6844Z" fill="black"/>
<path d="M161.849 83.8117H165.113L163.507 78.7542L161.849 83.8117ZM162.015 75.8156H165.052L169.608 88.6686H166.693L165.864 86.0265H161.125L160.234 88.6686H157.424L162.015 75.8156Z" fill="black"/>
<path d="M175.893 79.164H178.564L175.134 88.6686H172.507L169.094 79.164H171.887L173.868 86.1748L175.893 79.164Z" fill="black"/>
<path d="M184.866 84.0471C184.709 84.146 184.549 84.2273 184.386 84.2913C184.229 84.3494 184.011 84.4046 183.731 84.457L183.173 84.5616C182.649 84.6546 182.274 84.768 182.047 84.9017C181.663 85.1284 181.471 85.4801 181.471 85.9568C181.471 86.3811 181.587 86.6892 181.82 86.8811C182.058 87.0671 182.346 87.1601 182.684 87.1601C183.219 87.1601 183.711 87.0032 184.159 86.6892C184.613 86.3753 184.848 85.8027 184.866 84.9714V84.0471ZM183.356 82.8874C183.816 82.8293 184.144 82.7566 184.342 82.6694C184.697 82.5183 184.875 82.2828 184.875 81.9631C184.875 81.5736 184.738 81.3062 184.464 81.1609C184.197 81.0097 183.801 80.9341 183.277 80.9341C182.69 80.9341 182.274 81.0795 182.029 81.3701C181.855 81.5852 181.738 81.8759 181.68 82.2421H179.28C179.332 81.4108 179.565 80.7278 179.978 80.193C180.636 79.3559 181.764 78.9373 183.365 78.9373C184.406 78.9373 185.331 79.1437 186.14 79.5564C186.949 79.9692 187.353 80.7481 187.353 81.8933V86.2533C187.353 86.5555 187.359 86.9218 187.371 87.3519C187.388 87.6775 187.438 87.8984 187.519 88.0147C187.601 88.1309 187.723 88.2268 187.886 88.3024V88.6686H185.18C185.104 88.4768 185.052 88.2966 185.023 88.128C184.994 87.9594 184.971 87.7676 184.953 87.5525C184.61 87.9246 184.214 88.2414 183.766 88.503C183.231 88.8111 182.626 88.9651 181.951 88.9651C181.09 88.9651 180.377 88.721 179.812 88.2327C179.254 87.7385 178.974 87.0409 178.974 86.1399C178.974 84.9714 179.425 84.1256 180.327 83.6024C180.822 83.3176 181.549 83.1141 182.509 82.992L183.356 82.8874Z" fill="black"/>
<path d="M191.753 88.6686H189.265V75.8156H191.753V88.6686Z" fill="black"/>
<path d="M199.076 84.0471C198.919 84.146 198.759 84.2273 198.596 84.2913C198.439 84.3494 198.221 84.4046 197.941 84.457L197.383 84.5616C196.859 84.6546 196.484 84.768 196.257 84.9017C195.873 85.1284 195.681 85.4801 195.681 85.9568C195.681 86.3811 195.797 86.6892 196.03 86.8811C196.268 87.0671 196.556 87.1601 196.894 87.1601C197.429 87.1601 197.921 87.0032 198.369 86.6892C198.823 86.3753 199.059 85.8027 199.076 84.9714V84.0471ZM197.566 82.8874C198.026 82.8293 198.354 82.7566 198.552 82.6694C198.907 82.5183 199.085 82.2828 199.085 81.9631C199.085 81.5736 198.948 81.3062 198.674 81.1609C198.407 81.0097 198.011 80.9341 197.487 80.9341C196.9 80.9341 196.484 81.0795 196.239 81.3701C196.065 81.5852 195.948 81.8759 195.89 82.2421H193.49C193.542 81.4108 193.775 80.7278 194.188 80.193C194.846 79.3559 195.975 78.9373 197.575 78.9373C198.616 78.9373 199.541 79.1437 200.35 79.5564C201.159 79.9692 201.563 80.7481 201.563 81.8933V86.2533C201.563 86.5555 201.569 86.9218 201.581 87.3519C201.598 87.6775 201.648 87.8984 201.729 88.0147C201.811 88.1309 201.933 88.2268 202.096 88.3024V88.6686H199.39C199.315 88.4768 199.262 88.2966 199.233 88.128C199.204 87.9594 199.181 87.7676 199.163 87.5525C198.82 87.9246 198.424 88.2414 197.976 88.503C197.441 88.8111 196.836 88.9651 196.161 88.9651C195.3 88.9651 194.587 88.721 194.022 88.2327C193.464 87.7385 193.184 87.0409 193.184 86.1399C193.184 84.9714 193.635 84.1256 194.537 83.6024C195.032 83.3176 195.759 83.1141 196.719 82.992L197.566 82.8874Z" fill="black"/>
<path d="M208.695 78.9373C209.678 78.9373 210.481 79.196 211.104 79.7134C211.732 80.2249 212.046 81.0766 212.046 82.2683V88.6686H209.498V82.8874C209.498 82.3875 209.431 82.0038 209.297 81.7364C209.053 81.2481 208.587 81.0039 207.9 81.0039C207.057 81.0039 206.478 81.3614 206.164 82.0764C206.001 82.4543 205.919 82.9368 205.919 83.5239V88.6686H203.44V79.1815H205.841V80.5679C206.161 80.0796 206.463 79.7279 206.748 79.5128C207.26 79.1291 207.909 78.9373 208.695 78.9373Z" fill="black"/>
<path d="M219.675 82.5735C219.629 82.2189 219.509 81.8991 219.317 81.6143C219.038 81.2306 218.604 81.0388 218.017 81.0388C217.179 81.0388 216.606 81.4544 216.297 82.2857C216.134 82.7275 216.053 83.3147 216.053 84.0471C216.053 84.7447 216.134 85.3057 216.297 85.7301C216.594 86.5207 217.153 86.916 217.973 86.916C218.555 86.916 218.968 86.759 219.212 86.4451C219.457 86.1312 219.605 85.7242 219.658 85.2243H222.197C222.139 85.98 221.866 86.6951 221.377 87.3694C220.597 88.4565 219.442 89 217.912 89C216.382 89 215.256 88.5466 214.534 87.6397C213.813 86.7328 213.452 85.5557 213.452 84.1082C213.452 82.4747 213.85 81.2045 214.648 80.2976C215.445 79.3907 216.545 78.9373 217.947 78.9373C219.14 78.9373 220.114 79.2047 220.871 79.7395C221.633 80.2743 222.084 81.219 222.224 82.5735H219.675Z" fill="black"/>
<path d="M228.831 78.9199C229.419 78.9199 229.951 79.0216 230.428 79.2251C230.911 79.4285 231.307 79.7395 231.615 80.1581C231.877 80.5127 232.037 80.8789 232.096 81.2568C232.154 81.6288 232.183 82.2392 232.183 83.0879V88.6686H229.643V82.8874C229.643 82.3758 229.556 81.9631 229.381 81.6492C229.154 81.2074 228.724 80.9865 228.089 80.9865C227.432 80.9865 226.931 81.2074 226.588 81.6492C226.251 82.0852 226.082 82.7101 226.082 83.5239V88.6686H223.603V75.8592H226.082V80.4022C226.443 79.85 226.859 79.4663 227.33 79.2512C227.807 79.0303 228.308 78.9199 228.831 78.9199Z" fill="black"/>
<path d="M237.909 80.9603C237.333 80.9603 236.885 81.1405 236.565 81.5009C236.25 81.8614 236.053 82.3497 235.971 82.9659H239.838C239.797 82.309 239.596 81.8119 239.235 81.4748C238.881 81.1318 238.438 80.9603 237.909 80.9603ZM237.909 78.9111C238.7 78.9111 239.413 79.0594 240.047 79.3559C240.681 79.6523 241.205 80.1203 241.618 80.7598C241.991 81.3236 242.232 81.9776 242.343 82.7217C242.407 83.1577 242.433 83.7855 242.421 84.6052H235.91C235.945 85.5586 236.245 86.2271 236.809 86.6108C237.152 86.8491 237.566 86.9683 238.048 86.9683C238.561 86.9683 238.977 86.8229 239.297 86.5323C239.471 86.3753 239.625 86.1573 239.759 85.8783H242.299C242.235 86.4422 241.941 87.0148 241.418 87.5961C240.603 88.5204 239.462 88.9826 237.996 88.9826C236.786 88.9826 235.718 88.5931 234.793 87.8141C233.868 87.0351 233.405 85.7678 233.405 84.0123C233.405 82.3671 233.821 81.1056 234.653 80.2278C235.491 79.35 236.576 78.9111 237.909 78.9111Z" fill="black"/>
</svg>
